<svg viewBox="0 0 974 108" xmlns="http://www.w3.org/2000/svg">
  <path d="M64.49 2.23c5.16 0 8.547-.49 10.645-1.316l4.196 29.633h-.32c-8.065-15.145-15-24.53-32.905-24.53h-8.87v43.785h6.776c11.776 0 16.126-3.29 20.486-16.952h.324v37.368h-.323c-4.36-13.662-8.874-16.462-20.485-16.462h-6.775v47.902h10.156c18.714 0 26.134-11.526 34.357-27.324h.323l-3.87 31.11H.62v-.328c5.645-4.283 6.775-7.573 6.775-17.287V19.68c0-9.71-1.13-13.005-6.776-17.283v-.33h63.874v.163h-.003zm117.904 28.48c14.677 0 20.485 10.533 20.485 23.538v35.394c0 9.708.32 11.85 5.157 15.636v.33h-37.904v-.33c4.84-3.787 5-5.928 5-15.637V53.093c0-5.102-1.617-9.056-6.29-9.056-4.68 0-7.747 4.94-7.747 15.474v29.96c0 9.715.323 11.856 5 15.643v.33h-37.902v-.33c4.84-3.787 5.164-5.928 5.164-15.642V52.933c0-5.103-1.612-9.052-6.29-9.052-4.677 0-7.905 4.936-7.905 15.47v29.962c0 9.71.484 11.85 5.16 15.637v.33H86.42v-.33c4.84-3.788 5.162-5.93 5.162-15.638V48.325c0-10.54-.646-12.184-5.973-16.133v-.33h33.394v17.283c3.066-12.18 10.808-18.765 21.61-18.765 12.26 0 18.874 7.573 20.327 18.765 2.9-11.85 10.807-18.436 21.45-18.436h.004zm96.774 34.735h-40.002c0 18.107 7.906 27.983 19.84 27.983 7.743 0 14.518-3.625 18.55-13.334l.968.49c-3.388 16.134-14.84 26.506-31.774 26.506-19.354 0-35.484-13.83-35.484-38.026 0-23.376 16.775-38.188 35.965-38.188 21.775-.167 31.938 15.14 31.938 34.57zm-25.32-2.967c0-16.79-.65-29.3-6.453-29.3s-7.74 12.02-8.06 29.3h14.52-.007zm81.13-7.9c0-4.937-2.743-8.065-7.906-8.065-5.803 0-10.967 5.93-10.967 17.616v25.68c0 9.712 2.1 12.182 8.07 15.473v.33h-40.81v-.33c5.004-3.788 5.163-5.93 5.163-15.638V48.652c0-10.54-.645-12.184-5.967-16.133v-.33h33.384v21.067c2.905-12.18 8.872-22.55 20.16-22.55 9.197 0 14.84 6.747 14.84 15.636 0 10.87-7.096 16.96-15.16 16.96-2.58 0-4.68-.656-5.487-1.314 2.743-1.155 4.682-3.954 4.682-7.41l-.002-.002zm36.61-13.168c0 6.42 4.032 8.393 15.97 12.838 16.775 6.423 24.518 13.17 24.518 27.653 0 14.98-11.453 25.185-28.227 25.185-9.197 0-15.005-2.966-20.164-2.966-3.546 0-5.322 1.482-7.256 3.13l-1.453-27.82h.322c7.742 15.8 17.096 25.023 28.063 25.023 6.45 0 10.48-3.625 10.48-9.714 0-6.585-4.84-8.89-14.354-12.51-16.454-6.09-24.36-13.17-24.36-27.82 0-13.99 10.97-23.704 25.003-23.704 8.388 0 13.388 3.295 18.387 3.295 3.225 0 5.165-1.152 7.744-3.455v24.527h-.32c-6.29-13.004-15.97-21.893-25.325-21.893-5.48 0-9.033 3.29-9.033 8.23zm45.646 27.487c0-23.37 17.26-38.188 37.423-38.188 20.32 0 37.418 14.98 37.418 38.187 0 23.214-17.092 38.026-37.413 38.026-20.162.17-37.423-14.81-37.423-38.02l-.006-.006zm46.128 0c0-24.03-1.77-35.718-8.546-35.718-6.612 0-8.55 11.69-8.55 35.717 0 23.705 1.938 35.56 8.55 35.56 6.775.163 8.546-11.688 8.546-35.56zm65.972-36.705v17.45c3.225-12.185 11.612-18.933 22.42-18.933 14.677 0 20.643 10.533 20.643 23.54V89.64c0 9.707.486 11.85 5.164 15.635v.33h-37.903v-.33c4.836-3.787 5.163-5.928 5.163-15.637V53.097c0-5.102-2.098-9.056-6.94-9.056-5 0-8.71 4.94-8.71 15.47v29.96c0 9.716.487 11.857 5.164 15.644v.33H496.43v-.33c4.836-3.787 5.16-5.928 5.16-15.642v-40.98c0-10.534-.646-12.18-5.968-16.133v-.33h33.712v.167-.005zm101.94-13.5c0 11.855 10.322 15.803 21.61 20.248C667.24 44.372 683.21 50.628 683.21 74c0 20.744-17.097 33.09-37.26 33.09-11.13 0-18.708-3.953-24.516-3.953-3.552 0-6.453 1.483-9.677 3.953l-2.42-36.052h.323c9.195 19.26 22.582 33.253 35.806 33.253 10.807 0 17.418-6.26 17.418-16.795 0-13.166-13.387-16.953-26.61-22.55-13.065-5.433-25.97-12.51-25.97-31.938 0-19.753 14.676-32.26 35.97-32.26 10 0 16.61 3.785 22.418 3.785 3.224 0 5.967-1.81 7.902-3.785l.808 30.78h-.322c-7.743-15.97-16.29-27.987-30.326-27.987-9.032 0-15.48 6.094-15.48 15.145v.007zm108.06 61.235c-2.092 14.488-8.708 27.163-24.675 27.163-13.23 0-22.42-7.902-22.26-25.35l.322-45.76h-6.13v-2.143c13.55-3.128 26.132-12.345 31.612-27.325h1.612v25.68h18.064l-.64 3.62h-17.424v46.914c0 7.244 2.098 10.864 7.26 10.864 5.16 0 9.033-4.936 10.645-14.32l1.61.657h.004zm2.58-11.03c0-23.37 17.26-38.188 37.424-38.188 20.32 0 37.418 14.98 37.418 38.187 0 23.214-17.097 38.026-37.418 38.026-20.163.17-37.423-14.81-37.423-38.02v-.006zm45.97 0c0-24.03-1.77-35.718-8.546-35.718-6.612 0-8.55 11.69-8.55 35.717 0 23.705 1.938 35.56 8.55 35.56 6.775.163 8.546-11.688 8.546-35.56zm65.972-36.705v17.45c3.224-12.185 11.612-18.933 22.42-18.933 14.676 0 20.643 10.533 20.643 23.54V89.64c0 9.707.485 11.85 5.162 15.635v.33h-37.904v-.33c4.836-3.787 5.158-5.928 5.158-15.637V53.097c0-5.102-2.093-9.056-6.934-9.056-5 0-8.71 4.94-8.71 15.47v29.96c0 9.716.487 11.857 5.164 15.644v.33H821.11v-.33c4.84-3.787 5.164-5.928 5.164-15.642v-40.98c0-10.534-.645-12.18-5.967-16.133v-.33h33.55v.167-.005zm119.516 33.253H933.37c0 18.107 7.906 27.983 19.84 27.983 7.742 0 14.517-3.625 18.55-13.334l.967.49c-3.388 16.134-14.84 26.506-31.774 26.506-19.358 0-35.488-13.83-35.488-38.026 0-23.376 16.774-38.188 35.965-38.188 21.78-.167 31.944 15.14 31.944 34.57h-.002zm-25.326-2.967c0-16.79-.644-29.3-6.448-29.3-5.808 0-7.742 12.02-8.065 29.3h14.513z" fill="#111" fill-rule="evenodd"/>
</svg>
